<?xml version="1.0" standalone="no"?>
<!DOCTYPE svg PUBLIC "-//W3C//DTD SVG 20010904//EN"
 "http://www.w3.org/TR/2001/REC-SVG-20010904/DTD/svg10.dtd">
<svg version="1.0" xmlns="http://www.w3.org/2000/svg"
 width="300.000000pt" height="300.000000pt" viewBox="0 0 300.000000 300.000000"
 preserveAspectRatio="xMidYMid meet">
<metadata>
Created by potrace 1.14, written by Peter Selinger 2001-2017
</metadata>
<g transform="translate(0.000000,300.000000) scale(0.100000,-0.100000)"
fill="#000000" stroke="none">
<path d="M1270 2788 c-42 -18 -820 -56 -1032 -50 -143 4 -191 2 -203 -8 -11
-9 -15 -31 -15 -77 l0 -65 19 23 20 24 22 -22 c21 -21 21 -23 5 -47 -18 -29
-35 -33 -55 -13 -14 12 -12 -515 6 -1590 l6 -402 35 -12 c32 -11 37 -10 54 11
10 12 18 39 19 59 0 29 2 32 9 16 5 -11 9 -39 9 -62 1 -30 5 -43 15 -43 10 0
16 27 23 108 8 95 10 104 21 80 6 -16 19 -28 29 -29 12 -1 9 -3 -7 -8 -27 -7
-39 -39 -21 -51 8 -5 7 -14 -3 -35 -19 -37 -13 -45 37 -46 l42 -2 -35 -6 c-32
-6 -25 -9 65 -30 55 -12 138 -34 185 -47 47 -13 159 -42 250 -63 91 -22 210
-52 265 -65 55 -14 159 -40 230 -57 144 -36 152 -38 136 -49 -23 -14 102 -31
165 -22 13 2 34 46 34 73 0 11 5 17 10 14 16 -10 11 -77 -7 -97 -15 -17 -15
-20 -3 -28 8 -6 24 -10 35 -10 19 0 20 6 17 102 -1 57 2 146 7 198 8 93 8 92
10 -80 2 -224 2 -221 21 -217 8 2 13 10 11 18 -2 8 -3 133 -3 279 0 146 -2
260 -4 254 -2 -5 -9 -30 -14 -55 l-9 -44 4 45 c3 25 7 151 10 280 7 306 15
426 26 409 5 -8 8 11 8 48 0 34 2 67 6 73 4 6 9 57 11 113 2 56 4 102 5 102 0
0 2 13 4 29 2 15 7 31 11 35 4 3 4 -39 1 -94 -4 -55 -9 -167 -11 -250 -6 -191
9 -102 21 120 7 134 8 143 14 80 4 -58 6 -62 8 -25 1 25 9 81 16 125 13 74 14
76 10 20 -11 -158 -15 -449 -5 -427 5 13 8 28 5 32 -3 5 -2 21 1 37 7 25 8 25
15 8 4 -12 8 18 8 73 1 67 -2 92 -11 92 -10 0 -10 2 -1 8 10 6 13 95 13 367 1
198 4 379 7 403 l5 42 83 0 c52 0 85 -4 87 -11 3 -8 14 -8 43 0 22 6 193 31
380 56 187 25 354 48 372 51 l32 6 0 98 c0 85 -2 99 -17 103 -16 4 -16 5 1 6
9 0 17 8 17 18 0 14 2 14 20 -2 19 -17 20 -31 21 -279 0 -144 4 -282 8 -308 4
-26 5 -49 1 -50 -4 -2 -10 -28 -13 -58 -4 -37 -3 -50 3 -40 7 10 10 -15 10
-78 0 -51 -3 -91 -7 -89 -5 3 -9 -43 -9 -102 -2 -95 -1 -100 8 -51 5 30 13
102 17 160 7 92 8 83 5 -75 -1 -99 -4 -198 -5 -220 l-2 -40 -7 50 c-6 46 -7
44 -8 -30 -3 -121 8 -215 24 -215 16 0 18 12 5 25 -5 6 -6 28 -1 50 7 37 8 38
10 10 l3 -30 8 35 c6 27 7 21 3 -25 -2 -33 1 -67 6 -75 8 -11 9 -8 4 12 -3 15
-2 33 3 40 4 7 9 108 9 223 1 116 5 380 9 588 6 318 5 378 -6 377 -33 -5 -47
2 -58 27 -13 28 -13 28 8 9 20 -18 22 -18 41 -1 22 20 25 46 10 76 -8 13 -7
19 0 19 7 0 10 22 8 63 l-3 62 -70 6 c-70 6 -211 -7 -230 -21 -16 -12 -1094
45 -1108 59 -14 14 -262 14 -297 -1z m-1060 -152 c0 -2 -7 -6 -15 -10 -8 -3
-15 -1 -15 4 0 6 7 10 15 10 8 0 15 -2 15 -4z m1660 -30 c0 -8 -4 -18 -10 -21
-5 -3 -10 3 -10 14 0 12 5 21 10 21 6 0 10 -6 10 -14z m-1750 -50 c0 -33 -21
-66 -41 -66 -6 0 -1 12 10 26 12 15 21 37 21 50 0 13 2 24 5 24 3 0 5 -15 5
-34z m1812 -16 c11 0 16 -5 13 -11 -4 -5 -17 -9 -28 -8 -40 3 -58 -1 -52 -10
3 -5 1 -12 -5 -16 -6 -4 -10 7 -10 26 0 30 1 31 31 25 17 -3 40 -6 51 -6z
m-374 -52 c3 -22 -3 -30 -29 -43 -39 -21 -54 -9 -39 31 20 51 63 59 68 12z
m216 -12 c-17 -13 -20 -13 -25 2 -4 11 0 19 10 23 26 11 38 -9 15 -25z m91
-13 c11 -1 38 -6 60 -11 31 -8 34 -10 14 -11 -67 -3 -86 -12 -103 -52 -15 -34
-22 -39 -50 -39 -40 0 -76 38 -75 78 1 26 1 26 13 -6 15 -42 38 -57 65 -42 25
13 37 73 22 108 l-11 27 22 -25 c13 -14 32 -26 43 -27z m-272 -54 c-7 -27 -15
-33 -39 -36 -20 -3 -36 2 -45 13 -12 15 -12 16 8 10 28 -9 60 7 68 35 11 33
17 15 8 -22z m-1287 21 c55 -5 248 -21 429 -35 182 -13 356 -27 388 -30 34 -3
57 -1 57 5 0 6 -5 10 -12 10 -6 0 -9 2 -7 5 3 2 33 -5 68 -15 34 -11 88 -20
119 -21 73 -1 106 -11 110 -31 2 -9 -6 -22 -17 -28 -12 -6 -21 -7 -21 -2 0 15
-43 22 -57 10 -8 -6 -13 -7 -13 -1 0 6 -40 10 -97 9 -107 -1 -386 12 -445 20
-20 3 -46 0 -58 -6 -15 -8 -20 -8 -16 -1 5 8 -15 11 -63 11 -71 0 -82 -5 -59
-28 9 -9 7 -12 -10 -12 -12 0 -22 -2 -22 -4 0 -3 16 -33 36 -66 20 -34 34 -64
31 -67 -3 -3 -13 10 -22 27 -9 18 -42 60 -73 94 -32 33 -66 73 -77 88 -19 25
-26 27 -100 28 -133 3 -124 7 -123 -50 0 -28 4 -53 9 -56 5 -3 9 -10 9 -16 0
-7 -6 -6 -15 2 -21 17 -19 1 4 -34 11 -17 18 -33 15 -38 -3 -4 2 -18 10 -30 9
-12 16 -27 16 -33 0 -5 -5 -3 -10 5 -5 8 -10 11 -10 7 0 -5 15 -27 34 -48 36
-43 88 -151 61 -129 -10 8 -15 9 -15 2 0 -6 12 -17 27 -24 47 -23 37 -33 -28
-30 -59 4 -60 3 -49 -17 6 -12 17 -21 24 -21 9 0 12 -9 8 -25 -2 -14 1 -32 8
-40 11 -13 8 -15 -16 -15 -25 -1 -26 -2 -11 -11 10 -6 17 -22 17 -39 0 -16 5
-32 11 -36 8 -4 5 -11 -9 -18 -17 -9 -18 -14 -9 -27 7 -8 21 -21 32 -28 17
-11 14 -12 -22 -7 l-41 6 15 -31 c12 -24 13 -33 3 -39 -8 -5 -4 -9 12 -14 39
-11 239 -36 288 -36 33 0 52 -6 64 -19 16 -18 15 -18 -26 -10 -86 15 -348 42
-354 36 -4 -4 5 -16 20 -28 20 -16 24 -24 15 -30 -10 -6 -10 -11 0 -22 9 -12
9 -16 -1 -20 -11 -4 -10 -7 0 -15 11 -7 11 -10 -3 -15 -12 -5 -14 -11 -5 -26
5 -11 7 -26 4 -34 -3 -8 0 -18 6 -22 9 -6 9 -10 -1 -16 -11 -7 -12 -12 -2 -28
10 -16 9 -20 -5 -26 -13 -5 -14 -8 -3 -14 7 -5 11 -14 7 -19 -6 -10 11 -17 89
-35 11 -3 -13 -3 -52 0 -52 4 -73 3 -73 -6 0 -6 7 -14 15 -17 8 -4 15 -18 15
-33 0 -15 5 -32 12 -39 9 -9 7 -12 -10 -12 -22 0 -31 -15 -13 -22 5 -1 -4 -22
-20 -46 -29 -42 -43 -105 -16 -72 7 8 21 22 31 30 18 14 19 14 6 -10 -7 -14
-21 -36 -30 -50 -10 -14 -19 -42 -22 -62 l-4 -38 30 28 c16 15 38 36 49 47 10
11 2 -5 -17 -35 -40 -62 -44 -77 -18 -83 9 -2 -7 -3 -35 -3 l-53 1 0 250 c0
138 -3 320 -5 405 -3 85 -8 262 -11 394 -4 131 -10 233 -14 226 -12 -19 -18
199 -8 290 5 47 9 93 9 103 0 20 -8 20 115 7z m1585 -40 c5 0 9 -4 9 -10 0 -5
-11 -10 -25 -10 -16 0 -25 6 -25 16 0 11 5 14 16 10 9 -3 20 -6 25 -6z m-816
-111 c82 -6 152 -13 155 -16 5 -6 -120 0 -317 16 -57 4 -106 11 -110 16 -5 4
21 5 57 1 36 -3 132 -11 215 -17z m662 -161 c-2 -13 -4 -5 -4 17 -1 22 1 32 4
23 2 -10 2 -28 0 -40z m3 -59 c0 -11 -4 -18 -10 -14 -5 3 -7 12 -3 20 7 21 13
19 13 -6z m1217 5 c-3 -3 -12 -4 -19 -1 -8 3 -5 6 6 6 11 1 17 -2 13 -5z
m-1218 -56 c-1 -13 -5 -34 -9 -48 -7 -20 -8 -16 -9 23 -1 26 4 47 9 47 6 0 10
-10 9 -22z m-303 -111 c-27 -35 -25 -47 6 -47 11 0 18 -7 18 -20 0 -18 -7 -20
-55 -20 -51 0 -56 -2 -66 -27 -7 -19 -6 -28 1 -33 14 -8 -11 -20 -41 -20 -11
0 -17 -5 -14 -10 3 -6 -7 -27 -24 -47 -16 -20 -28 -40 -25 -44 2 -4 -4 -10
-15 -14 -12 -4 -17 -12 -14 -24 3 -13 -2 -20 -21 -25 -14 -3 -26 -11 -26 -17
0 -6 -14 -24 -31 -41 -17 -17 -26 -35 -22 -39 5 -5 84 -17 176 -27 92 -10 170
-22 174 -25 18 -18 -21 -18 -189 3 -138 17 -190 27 -210 42 -16 11 -28 23 -28
27 0 9 87 119 300 381 l125 153 3 -46 c2 -38 -2 -53 -22 -80z m1481 41 c-3 -7
-5 -2 -5 12 0 14 2 19 5 13 2 -7 2 -19 0 -25z m-1988 -44 c44 -5 51 -8 40 -19
-10 -10 -34 -12 -87 -8 -59 5 -75 9 -83 26 -10 18 -9 19 32 14 24 -3 68 -9 98
-13z m786 -316 c-4 -84 -10 -158 -14 -165 -7 -13 -3 211 5 275 11 89 16 36 9
-110z m-1135 92 c0 -13 -20 -13 -40 0 -12 8 -9 10 13 10 15 0 27 -4 27 -10z
m2365 -210 c-6 -57 -10 -69 -15 -49 -4 15 -6 39 -3 55 2 16 5 43 7 59 7 55 9
60 13 35 3 -13 2 -58 -2 -100z m-2214 -32 c12 -24 18 -40 14 -35 -5 4 -17 -1
-28 -10 -19 -17 -20 -17 -8 4 16 31 14 51 -3 27 -20 -27 -31 -10 -16 26 7 16
14 30 16 30 2 0 13 -19 25 -42z m2176 -55 c-3 -10 -5 -4 -5 12 0 17 2 24 5 18
2 -7 2 -21 0 -30z m-1975 -275 c209 -347 318 -532 314 -535 -1 -2 -166 33
-366 78 -265 59 -373 79 -399 74 -31 -6 -34 -5 -20 7 32 25 174 233 201 292
14 33 44 80 65 105 72 85 100 126 80 118 -16 -6 -17 -3 -11 31 7 36 6 37 -13
19 -22 -19 -21 -19 -26 50 -2 42 -2 43 15 20 10 -12 82 -129 160 -259z m415
-44 c14 -15 33 -24 52 -24 43 0 61 -9 61 -32 0 -16 -5 -18 -35 -12 -21 4 -35
2 -35 -4 0 -5 16 -24 35 -41 27 -23 35 -38 34 -63 0 -25 -3 -29 -10 -18 -73
113 -169 276 -142 241 10 -13 28 -34 40 -47z m-927 -28 c0 -2 -8 -10 -17 -17
-16 -13 -17 -12 -4 4 13 16 21 21 21 13z m34 -236 c-14 -28 -22 -55 -19 -60 7
-12 -22 -12 -50 0 -18 8 -18 9 5 9 19 1 31 13 52 51 36 65 45 65 12 0z m-326
-146 c2 -17 -2 -21 -28 -21 -34 0 -34 1 -19 28 13 25 43 21 47 -7z m1549 -66
c-3 -7 -5 -2 -5 12 0 14 2 19 5 13 2 -7 2 -19 0 -25z m-117 -273 c0 -33 -2
-35 -21 -25 -11 7 -27 9 -34 6 -18 -7 -8 24 13 42 28 22 42 14 42 -23z"/>
<path d="M194 2235 c0 -60 1 -84 3 -52 2 32 2 81 0 110 -2 29 -3 3 -3 -58z"/>
<path d="M829 1075 c-1 -3 -2 -10 -3 -15 0 -6 -8 -15 -16 -20 -26 -16 3 -31
69 -37 33 -3 61 -3 61 1 0 10 -33 60 -45 68 -11 9 -64 11 -66 3z"/>
<path d="M765 986 l30 -14 -35 -1 c-58 -1 -80 -37 -37 -60 20 -11 20 -11 -10
-7 -18 3 -34 2 -37 -2 -12 -19 18 -36 91 -53 87 -19 72 -24 -26 -8 -53 8 -67
7 -79 -4 -12 -13 -8 -17 34 -31 116 -38 394 -82 394 -62 0 16 -42 87 -54 92
-7 3 -46 11 -87 19 l-74 14 78 -6 78 -5 -18 36 c-11 23 -26 39 -42 43 -23 6
-24 7 -6 14 36 13 -45 38 -142 44 -82 6 -86 5 -58 -9z m52 -102 c-3 -3 -12 -4
-19 -1 -8 3 -5 6 6 6 11 1 17 -2 13 -5z m46 -11 c-7 -2 -19 -2 -25 0 -7 3 -2
5 12 5 14 0 19 -2 13 -5z m40 -50 c-7 -2 -21 -2 -30 0 -10 3 -4 5 12 5 17 0
24 -2 18 -5z"/>
<path d="M632 776 c-2 -27 8 -30 136 -42 39 -4 72 -10 72 -15 0 -4 10 -10 23
-12 12 -2 -3 -2 -33 1 -30 2 -52 1 -48 -3 11 -12 148 -33 148 -24 0 5 -8 9
-17 9 -10 0 -13 3 -8 9 6 5 28 6 50 1 22 -4 33 -9 25 -10 -16 -2 93 -28 122
-29 11 -1 16 6 15 19 -1 14 -10 21 -32 25 -167 26 -292 51 -355 71 -93 29 -95
29 -98 0z"/>
<path d="M608 733 c6 -2 18 -2 25 0 6 3 1 5 -13 5 -14 0 -19 -2 -12 -5z"/>
<path d="M675 720 c17 -4 41 -8 55 -8 22 0 22 1 -5 8 -16 4 -41 8 -55 8 -22 0
-22 -1 5 -8z"/>
<path d="M2652 2349 c-12 -5 -33 -32 -48 -61 -15 -29 -29 -47 -31 -40 -6 16
-41 15 -136 -3 -43 -8 -110 -15 -147 -15 -38 0 -72 -5 -75 -10 -4 -6 -46 -9
-101 -8 -89 2 -96 3 -114 27 -30 40 -24 2 6 -43 15 -21 22 -36 15 -32 -6 4
-11 3 -11 -2 0 -11 55 -88 69 -96 5 -4 20 -21 33 -39 16 -23 4 -15 -42 27 -36
33 -71 68 -78 78 -7 10 -17 18 -23 18 -17 0 -9 -25 11 -38 12 -7 18 -17 15
-21 -2 -5 14 -35 38 -67 37 -52 104 -146 214 -303 18 -25 34 -50 36 -56 3 -5
8 -7 12 -3 10 9 -62 128 -162 266 -41 57 -72 106 -70 109 4 3 117 -144 172
-224 10 -15 21 -20 33 -16 14 6 15 4 5 -8 -10 -12 -6 -24 19 -62 28 -43 29
-49 16 -65 -9 -9 -17 -23 -19 -30 -4 -13 -45 40 -104 138 -36 58 -111 155
-152 196 -18 18 -33 37 -33 42 0 5 -10 17 -21 28 l-22 19 13 -25 c7 -14 34
-54 59 -90 69 -96 93 -138 86 -150 -5 -8 -12 -7 -23 2 -24 20 -13 0 72 -124
43 -64 76 -122 74 -129 -2 -7 -30 27 -62 77 -32 49 -66 98 -76 109 -10 11 -27
37 -38 58 -25 47 -114 166 -125 167 -5 0 -6 -9 -2 -19 3 -11 1 -22 -5 -26 -15
-9 0 -33 107 -173 56 -73 99 -120 105 -116 7 5 9 2 5 -8 -5 -15 29 -57 40 -50
3 2 7 1 10 -2 4 -3 0 -6 -7 -6 -10 0 -9 -5 3 -18 20 -22 22 -42 4 -42 -24 0
-267 -443 -267 -485 0 -27 1 -28 20 -10 16 15 139 216 254 418 15 26 29 47 32
47 10 0 -143 -271 -211 -375 -11 -16 -15 -26 -10 -23 6 3 33 39 60 80 27 40
60 81 72 91 13 10 23 23 23 29 0 5 15 28 34 51 45 57 102 162 125 233 21 62
20 74 -3 55 -13 -11 -13 -8 -3 18 8 23 16 29 29 25 10 -3 18 -2 18 3 1 4 12
22 27 38 l26 30 -20 -36 c-11 -20 -26 -53 -33 -75 -7 -21 -23 -63 -36 -92 -13
-29 -36 -80 -50 -115 -14 -34 -31 -67 -36 -74 -5 -7 -7 -17 -3 -23 3 -5 -1
-10 -9 -10 -8 0 -21 -10 -27 -22 -9 -19 -9 -21 2 -11 26 26 28 12 4 -33 -36
-68 -31 -67 15 1 22 33 40 66 40 73 0 6 4 12 10 12 5 0 6 7 3 17 -4 10 -2 14
4 10 13 -8 37 18 29 32 -9 15 5 43 19 37 13 -5 30 18 125 167 24 37 46 67 48
67 7 0 -117 -227 -163 -296 -40 -61 -54 -94 -41 -94 2 0 14 16 26 35 12 19 26
33 31 30 5 -4 6 0 4 8 -3 7 5 25 19 40 13 14 45 68 71 119 26 51 51 98 55 103
18 25 241 467 237 471 -2 2 -25 -27 -51 -66 -25 -38 -49 -70 -52 -70 -3 0 9
20 26 45 37 54 92 167 84 174 -3 3 -9 -1 -14 -9 -19 -32 -119 -185 -191 -292
-42 -62 -94 -150 -115 -196 -20 -45 -39 -80 -41 -79 -12 13 85 203 168 327
128 194 197 331 180 359 -10 15 -20 0 -96 -144 -66 -123 -95 -174 -95 -162 0
4 10 27 22 50 50 96 68 140 53 127 -9 -7 9 36 40 95 30 59 55 110 55 114 0 13
-48 27 -68 20z m-532 -158 c0 -3 -16 -11 -35 -17 -33 -10 -52 -4 -41 14 6 9
76 12 76 3z m410 -41 c0 -5 -10 -10 -22 -9 -22 0 -22 1 -3 9 11 5 21 9 23 9 1
1 2 -3 2 -9z m-30 -60 c-12 -23 -25 -38 -30 -35 -6 4 -4 13 5 22 9 9 14 21 11
29 -3 7 3 15 12 17 9 3 18 5 20 6 1 0 -7 -17 -18 -39z m-290 6 c0 -2 -20 -11
-44 -19 -51 -18 -73 -9 -24 9 34 12 68 17 68 10z m373 -41 c-3 -9 -8 -14 -10
-11 -3 3 -2 9 2 15 9 16 15 13 8 -4z m-398 -5 c-3 -5 -10 -10 -16 -10 -5 0 -9
5 -9 10 0 6 7 10 16 10 8 0 12 -4 9 -10z m255 -79 c-6 -12 -21 -21 -33 -21
-12 0 -56 -9 -97 -20 -84 -22 -100 -24 -100 -12 0 5 49 19 109 31 74 16 112
28 116 38 3 9 8 13 11 10 3 -3 1 -15 -6 -26z m-220 -5 c0 -9 -30 -14 -35 -6
-4 6 3 10 14 10 12 0 21 -2 21 -4z m291 -49 c-10 -9 -11 -8 -5 6 3 10 9 15 12
12 3 -3 0 -11 -7 -18z m-119 -44 c-18 -34 -25 -39 -58 -41 -20 -2 -41 -5 -45
-8 -4 -2 -10 0 -14 5 -5 10 54 31 85 31 9 0 21 14 28 32 6 17 14 29 18 26 3
-3 -4 -24 -14 -45z m69 -79 c-16 -33 -30 -53 -31 -46 0 14 52 113 58 108 2 -2
-10 -30 -27 -62z m-104 14 c-5 -16 -57 -22 -57 -8 0 6 9 10 19 10 11 0 23 5
26 11 9 14 19 3 12 -13z m-137 -118 c25 -42 27 -51 11 -36 -11 11 -21 24 -21
30 0 6 -9 17 -20 24 -12 7 -18 17 -15 22 3 6 1 10 -4 10 -6 0 -11 8 -11 17 0
15 2 15 14 3 8 -8 29 -40 46 -70z"/>
<path d="M1968 2333 c6 -2 18 -2 25 0 6 3 1 5 -13 5 -14 0 -19 -2 -12 -5z"/>
<path d="M1988 1952 c12 -17 21 -34 20 -39 -4 -14 53 -91 80 -109 l27 -17 -19
29 c-41 63 -107 153 -118 160 -7 4 -2 -6 10 -24z"/>
<path d="M2881 1904 c0 -11 3 -14 6 -6 3 7 2 16 -1 19 -3 4 -6 -2 -5 -13z"/>
<path d="M2882 1840 c0 -14 2 -19 5 -12 2 6 2 18 0 25 -3 6 -5 1 -5 -13z"/>
<path d="M2695 1772 c-5 -4 -17 -15 -25 -26 -14 -18 -13 -18 20 -11 33 7 49
20 50 38 0 9 -32 9 -45 -1z"/>
<path d="M2648 1702 c-9 -2 -20 -16 -23 -32 -4 -17 -11 -32 -16 -35 -5 -4 -9
-11 -9 -17 0 -12 70 -5 113 11 22 9 27 17 27 45 0 34 -1 35 -37 33 -21 -1 -46
-3 -55 -5z"/>
<path d="M1930 1655 c0 -19 11 -19 36 0 18 14 18 14 -8 15 -18 0 -28 -5 -28
-15z"/>
<path d="M1948 1613 c6 -2 18 -2 25 0 6 3 1 5 -13 5 -14 0 -19 -2 -12 -5z"/>
<path d="M2640 1580 c-81 -22 -100 -30 -100 -41 0 -12 8 -11 82 7 96 24 128
35 128 45 0 13 -36 10 -110 -11z"/>
<path d="M1987 1566 c-59 -16 -67 -24 -56 -53 10 -28 47 -30 128 -8 55 14 90
35 59 35 -9 0 -20 9 -23 20 -7 23 -36 25 -108 6z"/>
<path d="M2642 1539 c-87 -25 -93 -28 -49 -24 21 1 40 5 44 9 3 3 16 6 27 6
12 1 35 7 51 15 44 20 5 17 -73 -6z"/>
<path d="M2500 1488 c5 -16 6 -28 3 -28 -4 0 11 -19 33 -42 55 -58 127 -148
123 -152 -2 -2 -40 37 -83 87 -45 51 -82 85 -84 78 -4 -13 158 -184 167 -176
6 6 31 -15 31 -27 0 -5 -5 -6 -12 -2 -7 4 -8 3 -4 -5 4 -6 11 -9 16 -6 12 8
33 -23 24 -37 -4 -7 -4 -10 1 -6 4 4 15 2 23 -5 13 -10 14 -9 3 11 -6 12 -32
51 -57 86 -38 55 -42 65 -27 69 13 3 10 5 -7 6 -14 0 -31 10 -37 20 -11 17 -9
21 15 30 24 9 23 10 -10 5 -48 -8 -51 11 -3 20 24 5 33 11 28 21 -3 10 1 15
13 15 9 0 15 2 12 5 -2 3 -29 0 -59 -5 l-54 -10 -32 37 c-30 35 -32 36 -23 11z
m117 -54 c-3 -3 -12 -4 -19 -1 -8 3 -5 6 6 6 11 1 17 -2 13 -5z"/>
<path d="M1983 1472 c-92 -37 -58 -38 57 -2 52 17 53 18 20 18 -19 1 -54 -7
-77 -16z"/>
<path d="M2035 1431 c-72 -19 -101 -32 -103 -44 -3 -14 2 -16 30 -11 18 4 38
7 43 8 6 0 10 -11 10 -26 -1 -24 3 -28 27 -28 17 0 33 8 43 23 29 41 65 98 65
102 0 7 -6 6 -115 -24z"/>
<path d="M2327 1393 c-4 -3 -7 -11 -7 -17 0 -6 5 -5 12 2 6 6 9 14 7 17 -3 3
-9 2 -12 -2z"/>
<path d="M2458 1368 c-27 -33 -22 -49 28 -108 26 -30 54 -66 63 -79 l15 -24 7
24 c7 27 -8 52 -24 42 -6 -3 -7 -1 -3 5 3 6 -2 16 -14 22 -38 20 -87 110 -60
110 15 0 145 -137 166 -175 10 -19 22 -35 26 -35 14 0 9 16 -13 39 -15 16 -18
25 -10 30 10 7 -140 171 -157 171 -4 0 -15 -10 -24 -22z m172 -138 c0 -5 -2
-10 -4 -10 -3 0 -8 5 -11 10 -3 6 -1 10 4 10 6 0 11 -4 11 -10z"/>
<path d="M1781 1354 c0 -11 3 -14 6 -6 3 7 2 16 -1 19 -3 4 -6 -2 -5 -13z"/>
<path d="M1834 1235 c0 -60 1 -84 3 -52 2 32 2 81 0 110 -2 29 -3 3 -3 -58z"/>
<path d="M1782 1290 c0 -14 2 -19 5 -12 2 6 2 18 0 25 -3 6 -5 1 -5 -13z"/>
<path d="M1958 1303 c6 -2 18 -2 25 0 6 3 1 5 -13 5 -14 0 -19 -2 -12 -5z"/>
<path d="M2511 1293 c6 -10 26 -29 43 -43 l31 -25 -25 31 c-14 17 -33 37 -43
43 -15 10 -16 9 -6 -6z"/>
<path d="M2410 1282 c0 -13 57 -83 67 -82 4 1 11 -4 14 -12 4 -7 14 -29 23
-48 32 -67 68 -120 81 -120 7 0 23 -12 34 -27 l21 -28 -17 40 c-28 63 -61 113
-83 125 -11 6 -18 15 -15 20 3 5 -20 38 -52 72 -59 65 -73 77 -73 60z"/>
<path d="M2390 1254 c0 -5 21 -35 46 -65 63 -74 73 -82 36 -29 -48 67 -81 106
-82 94z"/>
<path d="M1965 1231 c-3 -5 6 -8 20 -7 35 4 44 16 12 16 -14 0 -28 -4 -32 -9z"/>
<path d="M2170 1218 c-12 -22 -12 -22 6 -6 10 10 15 20 12 24 -4 3 -12 -5 -18
-18z"/>
<path d="M2282 1233 c-16 -6 -48 -67 -32 -61 10 3 58 69 48 67 -1 0 -9 -3 -16
-6z"/>
<path d="M2911 1224 c0 -11 3 -14 6 -6 3 7 2 16 -1 19 -3 4 -6 -2 -5 -13z"/>
<path d="M1741 1214 c0 -11 3 -14 6 -6 3 7 2 16 -1 19 -3 4 -6 -2 -5 -13z"/>
<path d="M2660 1196 c0 -2 8 -10 18 -17 15 -13 16 -12 3 4 -13 16 -21 21 -21
13z"/>
<path d="M2134 1166 c-9 -15 -14 -29 -10 -33 3 -3 6 -1 6 6 0 7 5 9 13 5 6 -4
9 -4 5 1 -4 4 -3 14 4 22 6 7 8 16 5 19 -3 3 -13 -6 -23 -20z"/>
<path d="M2677 1144 c-3 -5 3 -20 12 -33 12 -16 21 -20 25 -12 4 6 2 11 -4 11
-6 0 -14 10 -19 22 -4 12 -10 17 -14 12z"/>
<path d="M2095 1109 c-4 -6 -5 -12 -2 -15 2 -3 7 2 10 11 7 17 1 20 -8 4z"/>
<path d="M2650 1106 c0 -11 49 -61 55 -55 2 3 -9 18 -25 34 -17 16 -30 25 -30
21z"/>
<path d="M2517 1070 c9 -16 20 -30 24 -30 4 0 9 -9 12 -20 3 -11 11 -20 19
-19 10 0 10 2 1 6 -7 2 -13 9 -13 14 0 14 -44 79 -53 79 -5 0 0 -13 10 -30z"/>
<path d="M2729 1067 c12 -15 12 -19 -4 -31 -17 -12 -17 -13 4 -19 17 -4 21 -1
21 18 0 12 -8 29 -17 36 -16 13 -17 12 -4 -4z"/>
<path d="M2348 1053 c7 -3 16 -2 19 1 4 3 -2 6 -13 5 -11 0 -14 -3 -6 -6z"/>
<path d="M2520 1020 c6 -11 13 -20 16 -20 2 0 0 9 -6 20 -6 11 -13 20 -16 20
-2 0 0 -9 6 -20z"/>
<path d="M2017 993 c-4 -3 -7 -11 -7 -17 0 -6 5 -5 12 2 6 6 9 14 7 17 -3 3
-9 2 -12 -2z"/>
<path d="M2580 946 c0 -2 8 -10 18 -17 15 -13 16 -12 3 4 -13 16 -21 21 -21
13z"/>
<path d="M2725 803 c-22 -8 -62 -16 -90 -17 -74 -3 -512 -147 -602 -198 -40
-23 -71 -43 -69 -46 2 -2 13 1 23 6 10 5 36 12 58 15 35 5 37 4 15 -6 -96 -42
-133 -61 -123 -64 6 -2 64 18 129 46 126 52 290 105 363 116 24 4 59 18 79 31
19 13 43 24 54 24 10 0 44 13 76 29 31 16 83 37 115 47 58 18 75 35 35 33 -13
0 -41 -7 -63 -16z m-190 -85 c-22 -12 -60 -26 -85 -33 -25 -7 -56 -15 -70 -19
l-25 -7 25 14 c14 8 40 18 59 22 18 4 52 16 75 26 56 25 71 23 21 -3z"/>
<path d="M2913 723 c-18 -6 -27 -67 -14 -92 22 -41 61 -14 61 42 0 27 -28 57
-47 50z"/>
<path d="M1900 510 c-9 -6 -10 -10 -3 -10 6 0 15 5 18 10 8 12 4 12 -15 0z"/>
<path d="M1737 342 c-23 -25 -21 -78 3 -102 11 -11 25 -20 30 -20 20 0 50 41
50 68 0 35 -25 72 -49 72 -10 0 -25 -8 -34 -18z"/>
</g>
</svg>
